#!OML:ASF F:\VICON\USERDATA\INSTALL\rory3\rory3.ASF
:FULLY-SPECIFIED
:DEGREES
34
root 1.0365420335324094 18.10801698663406 -2.2877934845454657 -4.7199869468906055 -1.7539512070107361 0.654651198617985
lfemur -11.675757522927585 -3.8208052111223783 -24.183566047350574
ltibia 28.5702923424286
lfoot -10.10106040175483 -1.4407323190764043
ltoes -2.266705321413429
rfemur -13.281833538148677 1.2185960336669757 22.710928148680388
rtibia 75.44181489698346
rfoot 1.7390089964953113 -6.387786833218406
rtoes 5.438486521318536
lowerback 10.914467881978977 0.8954671041280962 -1.1344442656073968
upperback 0.332571002852935 1.2184854405757606 0.32345818793627923
thorax -5.717098536491372 0.7259061212720679 0.45806387515555846
lowerneck -15.16568644474782 -2.615680749248082 -1.8155436403106477
upperneck 23.398242654050886 -3.85281536274913 0.3538522470805819
head 9.73129570087795 -1.7212988325947403 -0.15194035770867986
lclavicle -1.39037950869999e-15 -1.857680299223635e-15
lhumerus -32.81595086964766 6.568407298743015 81.33927127984538
lradius 21.267716856354728
lwrist 1.1514687499095118
lhand -26.865146466895624 23.499290789342385
lfingers 7.125019999999999
lthumb -0.16472339632011246 53.55852694106411
rclavicle -1.3882806622661897e-15 -1.844514107654512e-15
rhumerus -28.329760163761055 -23.37919137041534 -77.93662726229843
rradius 27.986653231341393
rwrist 6.210102292749184
rhand -18.504307698155923 22.734133491120748
rfingers 7.125019999999999
rthumb 7.834702498402506 -7.077876496647214
35
root 1.0178370516253046 18.10888219156768 -1.4233673569347651 -4.8081267953824085 -1.447858301012715 0.864056008866684
lfemur -8.513280867933709 -3.755177871844512 -24.883193605590623
ltibia 28.140094457001645
lfoot -11.807600472080168 -0.8401189173092996
ltoes -2.6199377256779277
rfemur -17.33407530720357 0.6886483792932125 22.176995906444777
rtibia 74.65789397223082
rfoot -2.782269730170852 -6.433047345113121
rtoes 5.340477031192085
lowerback 11.024420424814942 0.5715673282131766 -1.4054325133534973
upperback 0.435263009359353 0.7234606735098523 0.39235891645958554
thorax -5.757651444825477 0.4960522473877691 0.8872036403867225
lowerneck -15.10302552679701 -2.524733685672112 -1.9743584457605499
upperneck 23.482809387627597 -3.5942811507627423 0.2957448471621741
head 9.772671879952165 -1.6744610713760872 -0.10207611253307833
lclavicle -1.3903978271644632e-15 -1.8577631511851703e-15
lhumerus -31.193133252710908 4.594551627604009 81.38076195367017
lradius 22.222883658450055
lwrist 2.3009602707199033
lhand -26.95769474110061 23.811205577809343
lfingers 7.125019999999999
lthumb -0.2722462967350022 53.795708514754516
rclavicle -1.3882970320227634e-15 -1.8445297000558214e-15
rhumerus -29.297916435209366 -24.365924272556356 -77.4396019234153
rradius 27.207948226314855
rwrist 6.403805406341649
rhand -18.41927813044614 22.572519339435235
rfingers 7.125019999999999
rthumb 7.848534751544584 -7.272823019386557
36
root 0.9996415872505694 18.084400949139432 -0.5933134635018984 -4.6882529983889345 -1.1079947889939232 0.9487927516394077
lfemur -5.896315246185106 -3.8607117582398214 -25.576718940494985
ltibia 27.906322048433715
lfoot -12.839022149642858 -0.014158816534752816
ltoes -2.6804218815420775
rfemur -20.91818292692689 0.46931540737421473 21.79266790371772
rtibia 71.16042997841662
rfoot -6.2028120962591835 -6.022066667708069
rtoes 5.0556727521135585
lowerback 11.10339782198303 0.23098245865142703 -1.7603179458903053
upperback 0.47793909158543 0.22250625066915436 0.5148358693738475
thorax -5.766723153657643 0.2760372063706224 1.295335739483723
lowerneck -15.1828517896837 -2.497076812495978 -2.0918763995208676
upperneck 23.541693906180132 -3.3985651050333368 0.1653025116993911
head 9.846201651214656 -1.6423103408033695 -0.07835422175521137
lclavicle -1.3904322779236323e-15 -1.8577554930615345e-15
lhumerus -29.401206741719655 2.5912023204545696 81.31625374991181
lradius 23.29591897460048
lwrist 3.20182658656701
lhand -26.94437973015698 24.581586837262872
lfingers 7.125019999999999
lthumb -0.2950623003905837 54.491505154842244
rclavicle -1.388259331189723e-15 -1.8444949294695175e-15
rhumerus -30.180617666332772 -24.5646558609782 -77.16816503569676
rradius 26.807207456320135
rwrist 5.790380615701453
rhand -18.387997127020988 22.642153094114924
rfingers 7.125019999999999
rthumb 7.889074139633291 -7.171774589334889
37
root 0.9747941203645509 18.042655101571185 -0.04699123746314271 -4.335467033315757 -0.7887313373730945 1.2281559836361855
lfemur -3.724165288196632 -3.881435846423958 -26.272372919292497
ltibia 27.627500558633063
lfoot -14.512882252769847 0.05951634337223943
ltoes -3.132216209795539
rfemur -23.963542696667474 0.4180795309870535 21.474863104966932
rtibia 64.97353210346785
rfoot -8.549563378576957 -6.30755880606907
rtoes 4.57588801628752
lowerback 11.136403633471124 -0.09764121438809681 -2.2171824715175004
upperback 0.5040318757817285 -0.19487486111586738 0.6823034005765474
thorax -5.681827892569667 0.04316452494098716 1.7361908181775263
lowerneck -15.303588416547083 -2.526452542915313 -2.246483336490749
upperneck 23.441590674348802 -3.3214861653584986 0.1581936376905513
head 9.82525501408199 -1.6343697216361752 -0.03218154928160244
lclavicle -1.3904621742978437e-15 -1.8577450003524717e-15
lhumerus -27.52144869901774 0.9779480244883576 81.10855539097626
lradius 24.46118087770295
lwrist 3.986967102660297
lhand -26.848895971197983 25.228497743374888
lfingers 7.125019999999999
lthumb -0.23985016627995193 55.078690754722146
rclavicle -1.388259974696546e-15 -1.8444950093554837e-15
rhumerus -30.964875350922213 -24.21576567750924 -76.95946602138311
rradius 26.668171876538814
rwrist 4.859412873990685
rhand -18.514957701769806 22.651576352129933
rfingers 7.125019999999999
rthumb 7.766537371649787 -7.169972923267909
